ply
format ascii 1.0
comment created by platoply
element vertex 20
property float x
property float y
property float z
property uchar red
property uchar green
property uchar blue
element face 12
property list uint8 int32 vertex_indices
end_header
-0.57735 -0.57735 0.57735 0 0 255
0.934172 0.356822 0 0 128 128
0.934172 -0.356822 0 128 0 128
-0.934172 0.356822 0 0 128 255
-0.934172 -0.356822 0 128 255 128
0 0.934172 0.356822 64 128 255
0 0.934172 -0.356822 255 64 128
0.356822 0 -0.934172 64 64 128
-0.356822 0 -0.934172 128 128 64
0 -0.934172 -0.356822 128 255 128
0 -0.934172 0.356822 32 128 255
0.356822 0 0.934172 64 128 128
-0.356822 0 0.934172 32 32 128
0.57735 0.57735 -0.57735 32 64 255
0.57735 0.57735 0.57735  64 32 128
-0.57735 0.57735 -0.57735 128 64 32
-0.57735 0.57735 0.57735 128 128 255
0.57735 -0.57735 -0.57735 0 0 32
0.57735 -0.57735 0.57735 0 255 128
-0.57735 -0.57735 -0.57735 128 128 255
5 1 2 18 11 14 
5 1 13 7 17 2 
5 3 4 19 8 15 
5 3 16 12 0 4 
5 3 15 6 5 16 
5 1 14 5 6 13 
5 2 17 9 10 18 
5 4 0 10 9 19 
5 7 8 19 9 17 
5 6 15 8 7 13 
5 5 14 11 12 16 
5 10 0 12 11 18 

